<?xml version="1.0" encoding="UTF-8" standalone="no"?>
<!-- Created with Inkscape (http://www.inkscape.org/) -->

<svg
   width="512"
   height="512"
   viewBox="0 0 512 512"
   version="1.1"
   id="svg5"
   inkscape:version="1.1.2 (0a00cf5339, 2022-02-04)"
   inkscape:export-xdpi="96"
   inkscape:export-ydpi="96"
   xmlns:inkscape="http://www.inkscape.org/namespaces/inkscape"
   xmlns:sodipodi="http://sodipodi.sourceforge.net/DTD/sodipodi-0.dtd"
   xmlns="http://www.w3.org/2000/svg"
   xmlns:svg="http://www.w3.org/2000/svg">
  <sodipodi:namedview
     id="namedview7"
     pagecolor="#ffffff"
     bordercolor="#666666"
     borderopacity="1.0"
     inkscape:pageshadow="2"
     inkscape:pageopacity="0.0"
     inkscape:pagecheckerboard="0"
     inkscape:document-units="px"
     showgrid="false"
     inkscape:zoom="1.1757812"
     inkscape:cx="88.87708"
     inkscape:cy="219.85383"
     inkscape:window-width="1600"
     inkscape:window-height="836"
     inkscape:window-x="0"
     inkscape:window-y="0"
     inkscape:window-maximized="1"
     inkscape:current-layer="layer1" />
  <defs
     id="defs2">
    <linearGradient
       id="linearGradient6056"
       inkscape:swatch="solid">
      <stop
         style="stop-color:#ffffff;stop-opacity:1;"
         offset="0"
         id="stop6054" />
    </linearGradient>
  </defs>
  <g
     inkscape:label="Layer 1"
     inkscape:groupmode="layer"
     id="layer1">
    <rect
       style="fill:#3f51b5;stroke-width:19.611;fill-opacity:1;stroke-miterlimit:4;stroke-dasharray:none;opacity:1"
       id="rect1176"
       width="512"
       height="512"
       x="0"
       y="0"
       rx="0"
       ry="0"
       inkscape:export-filename="/home/tomas/rect1172.png"
       inkscape:export-xdpi="36"
       inkscape:export-ydpi="36" />
    <g
       id="g5237"
       transform="translate(-2.089701,-23.328904)"
       style="fill:#ffffff;fill-opacity:1;stroke:#000000;stroke-opacity:1;stroke-width:3;stroke-miterlimit:4;stroke-dasharray:none">
      <path
         id="path5800"
         style="stroke-width:3;fill:#ffffff;fill-opacity:1;stroke:#000000;stroke-opacity:1;stroke-miterlimit:4;stroke-dasharray:none"
         d="M 116.61523 75.193359 C 108.87381 75.193359 102.64062 81.769323 102.64062 89.939453 L 102.64062 403.63867 C 102.64063 411.8088 108.87381 418.38477 116.61523 418.38477 L 299.77344 418.38477 C 307.51486 418.38477 313.74805 411.8088 313.74805 403.63867 L 313.74805 89.939453 C 313.74805 81.769323 307.51486 75.193359 299.77344 75.193359 L 116.61523 75.193359 z M 151.18164 110.67969 L 268.5332 110.67969 C 276.27463 110.67969 282.50586 117.25762 282.50586 125.42773 L 282.50586 245.23047 C 282.50586 253.40059 276.27463 259.97852 268.5332 259.97852 L 151.18164 259.97852 C 143.44021 259.97852 137.20703 253.40059 137.20703 245.23047 L 137.20703 125.42773 C 137.20703 117.25762 143.44021 110.67969 151.18164 110.67969 z "
         transform="translate(2.089701,23.328904)" />
      <path
         id="path5797"
         style="stroke-width:3;fill:#ffffff;fill-opacity:1;stroke:#000000;stroke-opacity:1;stroke-miterlimit:4;stroke-dasharray:none"
         d="M 98.986964,431.71429 H 323.81704 c 3.46585,0 6.25606,3.59765 6.25606,8.06646 v 9.8704 c 0,4.46882 -2.79021,8.06646 -6.25606,8.06646 H 98.986964 c -3.465858,0 -6.25606,-3.59764 -6.25606,-8.06646 v -9.8704 c 0,-4.46881 2.790202,-8.06646 6.25606,-8.06646 z" />
    </g>
    <rect
       style="fill:none;fill-opacity:1;stroke-width:19.611;stroke-miterlimit:4;stroke-dasharray:none"
       id="rect4667"
       width="144.28239"
       height="128.53488"
       x="137.25914"
       y="136.85382"
       rx="6.2560601"
       ry="8.0664597" />
    <rect
       style="fill:none;fill-opacity:1;stroke-width:19.611;stroke-miterlimit:4;stroke-dasharray:none"
       id="rect4710"
       width="70.192688"
       height="46.408638"
       x="137.25914"
       y="136.85382"
       rx="13.9737"
       ry="14.7475" />
    <path
       style="fill:none;stroke:#000000;stroke-width:13;stroke-linecap:butt;stroke-linejoin:miter;stroke-miterlimit:4;stroke-dasharray:none;stroke-opacity:1"
       d="m 313.84282,137.01628 c 24.67713,3.69759 26.08973,15.24462 31.22065,170.1498 6.71433,152.60965 54.65736,53.38335 59.72122,-141.56333"
       id="path10933"
       sodipodi:nodetypes="ccc" />
    <g
       id="g10312"
       transform="rotate(-12.759465,393.88679,100.85913)">
      <path
         id="rect9910"
         style="fill:#ffffff;stroke:#000000;stroke-width:2.56448"
         d="m 369.40217,74.82621 28.59377,43.36046 c 1.04224,1.5805 -0.29461,4.28776 -2.99741,6.07011 l -3.78029,2.49288 c -2.7028,1.78235 -5.71776,1.94485 -6.76001,0.36436 L 355.86447,83.753557 c -1.04225,-1.580497 0.29459,-4.287764 2.99739,-6.070112 l 3.78029,-2.49288 c 2.7028,-1.782347 5.71777,-1.944849 6.76002,-0.364355 z" />
      <path
         id="rect10223"
         style="fill:#ffffff;stroke:#000000;stroke-width:2.72025"
         d="M 418.40234 99.542969 C 418.30639 99.549013 418.21207 99.565664 418.11719 99.591797 L 376.81836 110.9668 C 375.3002 111.38493 374.55076 114.26229 375.13867 117.41992 L 385.66211 173.94336 C 386.25002 177.101 387.94669 179.30484 389.46484 178.88672 L 430.76172 167.51367 C 432.27987 167.09554 433.02932 164.21623 432.44141 161.05859 L 421.91797 104.53711 C 421.36681 101.57683 419.8417 99.452305 418.40234 99.542969 z M 402.00586 131.05273 C 403.75869 131.03133 405.5292 133.22648 406.08203 136.21094 L 409.7207 155.85742 C 410.31039 159.04085 409.28537 161.87978 407.42383 162.22461 L 395.25781 164.47852 C 393.39627 164.82334 391.42367 162.5389 390.83398 159.35547 L 387.19336 139.70898 C 386.60367 136.52556 387.62869 133.68467 389.49023 133.33984 L 401.65625 131.08594 C 401.7726 131.06439 401.889 131.05416 402.00586 131.05273 z "
         transform="rotate(12.759465,393.88679,100.85913)" />
    </g>
  </g>
</svg>
